<svg xmlns="http://www.w3.org/2000/svg" width="18" height="21.766" viewBox="0 0 18 21.766"><defs><style>.a{fill:#fff;}.b{fill:#dce1e7;}.c{fill:#95a4b6;}.d{fill:#b9c2cf;}.e{fill:#012d4a;}</style></defs><g transform="translate(-42)"><path class="a" d="M157.458,9.364V24.841H144V6h10.093Z" transform="translate(-97.71 -5.748)"/><path class="b" d="M384,86h3.364v.673H384Z" transform="translate(-327.617 -82.383)"/><path class="b" d="M144,438h13.458v.673H144Z" transform="translate(-97.71 -419.579)"/><path class="c" d="M387.364,9.364H384V6" transform="translate(-327.617 -5.748)"/><g transform="translate(42)"><ellipse class="d" cx="3.5" cy="4.5" rx="3.5" ry="4.5" transform="translate(1 12.766)"/><path class="c" d="M52.037,405.7a4.038,4.038,0,0,1-4.023-3.7c-.009.111-.014.223-.014.336a4.037,4.037,0,0,0,8.075,0c0-.113,0-.225-.014-.336A4.038,4.038,0,0,1,52.037,405.7Z" transform="translate(-47.748 -385.094)"/><path class="e" d="M60,3.512,56.488,0H46.037V12.961a4.29,4.29,0,1,0,3.99,6.385H60ZM56.635.862l2.5,2.5h-2.5ZM46.29,21.028a3.785,3.785,0,1,1,3.785-3.785A3.789,3.789,0,0,1,46.29,21.028Zm3.981-2.187a4.289,4.289,0,0,0-3.728-5.88V.5h9.589V3.869H59.5V18.841Z" transform="translate(-42)"/><path class="e" d="M192,64h4.037v.5H192Z" transform="translate(-185.692 -61.308)"/><path class="e" d="M192,96h2.692v.5H192Z" transform="translate(-185.692 -91.963)"/><path class="e" d="M192,144h9.421v.5H192Z" transform="translate(-185.692 -137.944)"/><path class="e" d="M192,176h9.421v.5H192Z" transform="translate(-185.692 -168.598)"/><path class="e" d="M192,240h9.421v.5H192Z" transform="translate(-185.692 -229.907)"/><path class="e" d="M192,272h6.729v.5H192Z" transform="translate(-185.692 -260.561)"/><path class="e" d="M192,208h9.421v.5H192Z" transform="translate(-185.692 -199.252)"/><path class="e" d="M336,320h3.364v.5H336Z" transform="translate(-323.636 -306.542)"/><path class="e" d="M110.805,348.2l-.357-.357-.915.915V346h-.5v2.755l-.915-.915-.357.357,1.524,1.524Z" transform="translate(-104.992 -331.449)"/><path class="e" d="M101.364,427.093H98.5V426H98v1.6h3.869V426h-.5Z" transform="translate(-95.645 -408.084)"/></g></g></svg>