<svg xmlns="http://www.w3.org/2000/svg" width="15.954" height="24.001" viewBox="0 0 15.954 24.001"><defs><style>.a{fill:#0a9acd;}.b{fill:#fbb540;}.c{fill:#ea9d2d;}.d{fill:#0bafea;}.e{fill:#8feaff;}</style></defs><g transform="translate(-129.76 -16)"><path class="a" d="M298,16h-1.6a.4.4,0,1,0,0,.8h.4v.8a.4.4,0,1,0,.8,0v-.8h.4a.4.4,0,1,0,0-.8Z" transform="translate(-159.486)"/><path class="b" d="M180.938,120h-12V106.8l2.8-2.8h9.2Z" transform="translate(-38.778 -83.6)"/><path class="c" d="M171.738,104v2.8h-2.8Z" transform="translate(-38.778 -83.6)"/><path class="c" d="M212.938,152h-12v-1.6h10.4V136h1.553Z" transform="translate(-69.178 -114)"/><path class="b" d="M244,184H232v-1.6h10.4V168H244Z" transform="translate(-98.686 -144.4)"/><g transform="translate(131.714 25.2)"><path class="c" d="M200,208h1.6v1.6H200Z" transform="translate(-200 -207.6)"/><path class="c" d="M200,272h1.6v1.6H200Z" transform="translate(-200 -268.4)"/><path class="c" d="M200,336h1.6v1.6H200Z" transform="translate(-200 -329.2)"/><path class="c" d="M258,232.8h-1.6a.4.4,0,1,1,0-.8H258a.4.4,0,1,1,0,.8Z" transform="translate(-253.2 -230.4)"/><path class="c" d="M321.6,232.8h-1.2a.4.4,0,1,1,0-.8h1.2a.4.4,0,1,1,0,.8Z" transform="translate(-314 -230.4)"/><path class="c" d="M261.2,264.8h-4.8a.4.4,0,1,1,0-.8h4.8a.4.4,0,1,1,0,.8Z" transform="translate(-253.2 -260.8)"/><path class="c" d="M261.2,200.8h-4.8a.4.4,0,1,1,0-.8h4.8a.4.4,0,1,1,0,.8Z" transform="translate(-253.2 -200)"/><path class="c" d="M259.6,296.8h-3.2a.4.4,0,0,1,0-.8h3.2a.4.4,0,0,1,0,.8Z" transform="translate(-253.2 -291.2)"/><path class="c" d="M258,328.8h-1.6a.4.4,0,1,1,0-.8H258a.4.4,0,1,1,0,.8Z" transform="translate(-253.2 -321.6)"/><path class="c" d="M321.6,328.8h-1.2a.4.4,0,1,1,0-.8h1.2a.4.4,0,1,1,0,.8Z" transform="translate(-314 -321.6)"/><path class="c" d="M259.6,360.8h-3.2a.4.4,0,1,1,0-.8h3.2a.4.4,0,1,1,0,.8Z" transform="translate(-253.2 -352)"/></g><circle class="d" cx="3" cy="3" r="3" transform="translate(134.76 17.626)"/><path class="a" d="M313.2,74.8a.4.4,0,0,1-.179-.042l-.8-.4A.4.4,0,0,1,312,74V72.4a.4.4,0,1,1,.8,0v1.353l.579.289a.4.4,0,0,1-.179.758Z" transform="translate(-174.686 -53.2)"/><path class="e" d="M274.4,76.4a2.4,2.4,0,0,1-1.44-4.32.4.4,0,0,1,.48.64,1.6,1.6,0,0,0,1.6,2.747.4.4,0,0,1,.32.733,2.384,2.384,0,0,1-.96.2Z" transform="translate(-136.683 -53.196)"/><path d="M192.4,202.4H194a.4.4,0,0,0,.4-.4v-1.6a.4.4,0,0,0-.4-.4h-1.6a.4.4,0,0,0-.4.4V202A.4.4,0,0,0,192.4,202.4Zm.4-1.6h.8v.8h-.8Z" transform="translate(-60.686 -174.8)"/><path d="M192.4,266.4H194a.4.4,0,0,0,.4-.4v-1.6a.4.4,0,0,0-.4-.4h-1.6a.4.4,0,0,0-.4.4V266A.4.4,0,0,0,192.4,266.4Zm.4-1.6h.8v.8h-.8Z" transform="translate(-60.686 -235.6)"/><path d="M194.4,330v-1.6a.4.4,0,0,0-.4-.4h-1.6a.4.4,0,0,0-.4.4V330a.4.4,0,0,0,.4.4H194A.4.4,0,0,0,194.4,330Zm-.8-.4h-.8v-.8h.8Z" transform="translate(-60.686 -296.4)"/><path d="M256.4,232.8H258a.4.4,0,1,0,0-.8h-1.6a.4.4,0,1,0,0,.8Z" transform="translate(-121.486 -205.2)"/><path d="M320.4,232a.4.4,0,1,0,0,.8h1.2a.4.4,0,1,0,0-.8Z" transform="translate(-182.286 -205.2)"/><path d="M256.4,264.8h4.8a.4.4,0,1,0,0-.8h-4.8a.4.4,0,1,0,0,.8Z" transform="translate(-121.486 -235.6)"/><path d="M256.4,200.8h4.8a.4.4,0,1,0,0-.8h-4.8a.4.4,0,1,0,0,.8Z" transform="translate(-121.486 -174.8)"/><path d="M256.4,296.8h3.2a.4.4,0,0,0,0-.8h-3.2a.4.4,0,0,0,0,.8Z" transform="translate(-121.486 -266)"/><path d="M256.4,328.8H258a.4.4,0,1,0,0-.8h-1.6a.4.4,0,1,0,0,.8Z" transform="translate(-121.486 -296.4)"/><path d="M321.6,328h-1.2a.4.4,0,1,0,0,.8h1.2a.4.4,0,1,0,0-.8Z" transform="translate(-182.286 -296.4)"/><path d="M256.4,360.8h3.2a.4.4,0,1,0,0-.8h-3.2a.4.4,0,1,0,0,.8Z" transform="translate(-121.486 -326.8)"/><path d="M312.221,74.358l.8.4a.4.4,0,1,0,.358-.716l-.579-.289V72.4a.4.4,0,1,0-.8,0V74a.4.4,0,0,0,.221.358Z" transform="translate(-174.686 -53.2)"/><path d="M274.4,76.52a2.384,2.384,0,0,0,.96-.2.4.4,0,0,0-.32-.733,1.6,1.6,0,0,1-1.6-2.747.4.4,0,0,0-.48-.64,2.4,2.4,0,0,0,1.44,4.32Z" transform="translate(-136.683 -53.32)"/><path d="M176.491,23.2h-1.2l0-1.2a.4.4,0,0,0-.4-.4h-1.153V20.4a.4.4,0,0,0-.4-.4H172.4a3.608,3.608,0,0,0-3.109-2.777V16.8h.4a.4.4,0,1,0,0-.8h-1.6a.4.4,0,0,0,0,.8h.4v.423A3.608,3.608,0,0,0,165.382,20h-1.244a.4.4,0,0,0-.283.117l-2.8,2.8a.4.4,0,0,0-.117.283V36.4a.4.4,0,0,0,.4.4h1.2V38a.4.4,0,0,0,.4.4h1.153v1.2a.4.4,0,0,0,.4.4h12a.4.4,0,0,0,.4-.4v-16a.4.4,0,0,0-.4-.4Zm-7.6-5.2a2.8,2.8,0,1,1-2.8,2.8A2.8,2.8,0,0,1,168.891,18Zm-5.153,3.366V22.8H162.3Zm-2,14.635V23.6h2.4a.4.4,0,0,0,.4-.4V20.8h.753a3.6,3.6,0,1,0,7.2,0h.447V36Zm1.6,1.6v-.8h10a.4.4,0,0,0,.4-.4v-14h.754V37.6Zm12.753,1.6h-11.2v-.8h10.047a.4.4,0,0,0,.4-.4L175.3,24h.794Z" transform="translate(-31.178)"/></g></svg>