<svg xmlns="http://www.w3.org/2000/svg" width="21.42" height="21.419" viewBox="0 0 21.42 21.419"><defs><style>.a{fill:#707070;}</style></defs><g transform="translate(0 -0.008)"><path class="a" d="M286.48,209.347H278a.669.669,0,1,1,0-1.339h8.478a.669.669,0,1,1,0,1.339Zm0,0" transform="translate(-265.73 -199.298)"/><path class="a" d="M400.673,136a.67.67,0,0,1-.473-1.143l2.874-2.874-2.874-2.874a.67.67,0,1,1,.947-.947l3.347,3.347a.669.669,0,0,1,0,.947l-3.347,3.347a.665.665,0,0,1-.474.2Zm0,0" transform="translate(-383.27 -122.609)"/><path class="a" d="M7.14,21.427a1.839,1.839,0,0,1-.553-.083L1.215,19.555A1.8,1.8,0,0,1,0,17.857V1.793A1.787,1.787,0,0,1,1.785.008a1.841,1.841,0,0,1,.553.083L7.709,1.88a1.8,1.8,0,0,1,1.215,1.7V19.642a1.787,1.787,0,0,1-1.785,1.785ZM1.785,1.347a.448.448,0,0,0-.446.446V17.857a.464.464,0,0,0,.31.43l5.346,1.781a.485.485,0,0,0,.146.02.447.447,0,0,0,.446-.446V3.578a.464.464,0,0,0-.31-.43L1.93,1.366a.484.484,0,0,0-.145-.02Zm0,0" transform="translate(0 0)"/><path class="a" d="M39.162,7.148a.67.67,0,0,1-.669-.669V2.462a1.117,1.117,0,0,0-1.115-1.116H27.337a.669.669,0,0,1,0-1.339h10.04a2.456,2.456,0,0,1,2.454,2.454V6.478A.67.67,0,0,1,39.162,7.148Zm0,0" transform="translate(-25.553)"/><path class="a" d="M185.571,284.48H182a.669.669,0,0,1,0-1.339h3.57a1.117,1.117,0,0,0,1.115-1.116v-4.016a.669.669,0,0,1,1.339,0v4.016A2.456,2.456,0,0,1,185.571,284.48Zm0,0" transform="translate(-173.746 -265.73)"/></g></svg>