<svg xmlns="http://www.w3.org/2000/svg" xmlns:xlink="http://www.w3.org/1999/xlink" width="101" height="100" viewBox="0 0 101 100"><defs><style>.a{fill:#fff;stroke:#707070;}.b{clip-path:url(#a);}.c{fill:url(#b);}.d{fill:url(#c);}.e{fill:url(#d);}.f{fill:url(#e);}.g{fill:url(#f);}.h{fill:url(#g);}.i{fill:url(#h);}.j{fill:url(#k);}.k{fill:url(#l);}.l{fill:url(#m);}.m{fill:url(#n);}.n{fill:url(#o);}.o{fill:url(#p);}.p{fill:url(#q);}.q{fill:url(#r);}.r{fill:url(#s);}.s{fill:url(#t);}.t{fill:url(#u);}.u{fill:url(#v);}.v{fill:url(#w);}.w{fill:url(#y);}</style><clipPath id="a"><ellipse class="a" cx="50.5" cy="50" rx="50.5" ry="50" transform="translate(-3527 -2052)"/></clipPath><linearGradient id="b" x1="0.5" y1="0.489" x2="0.5" y2="1.018" gradientUnits="objectBoundingBox"><stop offset="0" stop-color="#ff637b"/><stop offset="1" stop-color="#e63950"/></linearGradient><linearGradient id="c" x1="0.581" y1="0.88" x2="0.387" y2="-0.099" gradientUnits="objectBoundingBox"><stop offset="0" stop-color="#e63950" stop-opacity="0"/><stop offset="0.047" stop-color="#e4354b" stop-opacity="0.047"/><stop offset="0.467" stop-color="#d31822" stop-opacity="0.467"/><stop offset="0.799" stop-color="#c90709" stop-opacity="0.8"/><stop offset="1" stop-color="#c50000"/></linearGradient><linearGradient id="d" x1="0.381" y1="0.408" x2="0.857" y2="0.775" gradientUnits="objectBoundingBox"><stop offset="0" stop-color="#fce9cb"/><stop offset="1" stop-color="#ffbd95"/></linearGradient><linearGradient id="e" x1="0.381" y1="0.408" x2="0.857" y2="0.775" xlink:href="#d"/><linearGradient id="f" x1="0.259" y1="0.208" x2="0.691" y2="0.732" xlink:href="#d"/><linearGradient id="g" x1="0.313" y1="0.313" x2="0.961" y2="0.96" gradientUnits="objectBoundingBox"><stop offset="0" stop-color="#8a7889"/><stop offset="1" stop-color="#6e566e"/></linearGradient><linearGradient id="h" x1="0.49" y1="0.674" x2="1.216" y2="-0.675" gradientUnits="objectBoundingBox"><stop offset="0" stop-color="#6e566e" stop-opacity="0"/><stop offset="0.047" stop-color="#6e566e" stop-opacity="0.047"/><stop offset="1" stop-color="#6e566e"/></linearGradient><linearGradient id="k" x1="0.382" y1="0.492" x2="0.711" y2="0.869" xlink:href="#g"/><linearGradient id="l" x1="0.372" y1="0.316" x2="0.611" y2="0.754" gradientUnits="objectBoundingBox"><stop offset="0" stop-color="#6e566e" stop-opacity="0"/><stop offset="0.294" stop-color="#674d66" stop-opacity="0.294"/><stop offset="1" stop-color="#593b56"/></linearGradient><linearGradient id="m" x1="0.635" y1="0.502" x2="-0.247" y2="0.416" gradientUnits="objectBoundingBox"><stop offset="0" stop-color="#faa68e" stop-opacity="0"/><stop offset="1" stop-color="#c9766e"/></linearGradient><linearGradient id="n" x1="0.589" y1="0.328" x2="0.356" y2="0.778" gradientUnits="objectBoundingBox"><stop offset="0" stop-color="#edf5ff"/><stop offset="1" stop-color="#d5e8fe"/></linearGradient><linearGradient id="o" x1="0.447" y1="0.586" x2="0.315" y2="0.799" xlink:href="#n"/><linearGradient id="p" x1="-0.963" y1="0.328" x2="-1.196" y2="0.778" xlink:href="#n"/><linearGradient id="q" x1="-0.694" y1="0.586" x2="-0.825" y2="0.799" xlink:href="#n"/><linearGradient id="r" x1="0.5" y1="0.172" x2="0.5" y2="2.092" xlink:href="#m"/><linearGradient id="s" x1="0.404" y1="0.278" x2="0.564" y2="0.648" gradientUnits="objectBoundingBox"><stop offset="0" stop-color="#9ae1d3"/><stop offset="1" stop-color="#80d1c1"/></linearGradient><linearGradient id="t" x1="0.5" y1="0.197" x2="0.5" y2="0.045" gradientUnits="objectBoundingBox"><stop offset="0" stop-color="#0b799d" stop-opacity="0"/><stop offset="0.174" stop-color="#117d9e" stop-opacity="0.173"/><stop offset="0.414" stop-color="#2389a0" stop-opacity="0.416"/><stop offset="0.693" stop-color="#409ca3" stop-opacity="0.694"/><stop offset="0.999" stop-color="#69b7a8"/><stop offset="1" stop-color="#69b7a8"/></linearGradient><linearGradient id="u" x1="0.5" y1="0.047" x2="0.5" y2="0.637" xlink:href="#n"/><linearGradient id="v" x1="0.5" y1="0.437" x2="0.5" y2="1.154" xlink:href="#t"/><linearGradient id="w" x1="0.5" y1="0.247" x2="0.5" y2="-0.304" xlink:href="#t"/><linearGradient id="y" x1="0.5" y1="0.247" x2="0.5" y2="-0.304" xlink:href="#t"/></defs><g class="b" transform="translate(3527 2052)"><g transform="translate(-3526.5 -2052)"><path class="c" d="M95.442,90.888A4.594,4.594,0,0,1,92.4,98.515C81.605,99.44,67.319,100,51.645,100c-17.35,0-33-.687-44.086-1.791a4.583,4.583,0,0,1-3-7.595l.056-.063a60.892,60.892,0,0,1,90.153-.413q.341.372.676.749Z"/><path class="d" d="M95.442,90.888q-.335-.377-.676-.749a60.966,60.966,0,0,0-67.037-15.6c.3,1.312.871,2.623,1.312,3.932A5.241,5.241,0,0,0,30.8,81.157L49.645,100q1,0,2,0c15.674,0,29.96-.56,40.75-1.485a4.594,4.594,0,0,0,3.046-7.627Z"/><path class="e" d="M22.673,55.083A5.987,5.987,0,0,1,16.686,49.1v-3.56a5.987,5.987,0,1,1,11.974,0V49.1A5.987,5.987,0,0,1,22.673,55.083Z"/><path class="f" d="M77.327,55.083A5.987,5.987,0,0,1,71.34,49.1v-3.56a5.987,5.987,0,1,1,11.974,0V49.1A5.987,5.987,0,0,1,77.327,55.083Z"/><path class="g" d="M50,84.036A27.809,27.809,0,0,0,77.806,57.26q.348-9.614,0-19.233a27.825,27.825,0,0,0-55.611,0q-.348,9.614,0,19.233A27.809,27.809,0,0,0,50,84.036Z"/><path class="h" d="M41.6,43.3a4.011,4.011,0,1,1-4.011-4.011A4.011,4.011,0,0,1,41.6,43.3Z"/><path class="i" d="M39.381,39.717A4.012,4.012,0,0,1,34,45.1a4.011,4.011,0,1,0,5.382-5.382Z"/><path class="h" d="M66.424,43.3a4.011,4.011,0,1,1-4.011-4.011A4.011,4.011,0,0,1,66.424,43.3Z"/><path class="i" d="M64.207,39.717A4.012,4.012,0,0,1,58.825,45.1a4.011,4.011,0,1,0,5.382-5.382Z"/><path class="j" d="M22.273,47.333l.515-7.685a12.335,12.335,0,0,1,6.178-9.854,11.539,11.539,0,0,1,5.686-1.519H49.685a20.152,20.152,0,0,0,14.364-5.922l3.621,5.789A9.773,9.773,0,0,0,71.2,31.488a10.1,10.1,0,0,1,5.132,8.161l.339,5.479a1.972,1.972,0,0,0,1.907,1.86,1.656,1.656,0,0,0,1.641-1.415l2.456-14.635a50.652,50.652,0,0,0,.536-12.555A10.979,10.979,0,0,0,70.493,8.729,33.925,33.925,0,0,0,41.561.575L32.573,2.253A17.809,17.809,0,0,0,17.925,18.882l-.267,8.694a75.872,75.872,0,0,0,.582,11.931l1.04,8.149A1.39,1.39,0,0,0,20.661,48.9a1.673,1.673,0,0,0,1.612-1.572Z"/><path class="k" d="M70.493,8.728A33.925,33.925,0,0,0,41.561.575L32.573,2.253A17.809,17.809,0,0,0,17.925,18.882l-.267,8.694a75.872,75.872,0,0,0,.582,11.931l1.04,8.149A1.39,1.39,0,0,0,20.661,48.9a1.673,1.673,0,0,0,1.612-1.572l.515-7.685a12.335,12.335,0,0,1,6.178-9.854,11.539,11.539,0,0,1,5.687-1.519H49.685a20.152,20.152,0,0,0,14.364-5.922S61.743,12.8,70.493,8.728Z"/><path class="l" d="M77.805,57.26q.155-4.28.169-8.561a14.25,14.25,0,0,1-8.312,3.777,65.189,65.189,0,0,1,1.832,21.419A27.633,27.633,0,0,0,77.805,57.26Z"/><path class="m" d="M29.637,74.859h-.012c-2.217-.016-5.371-1.2-7.806-6.735a1.666,1.666,0,0,1,3.051-1.342c.948,2.155,2.547,4.728,4.78,4.745a1.666,1.666,0,0,1-.012,3.332Z"/><path class="n" d="M31.09,53.514h-.007a15.6,15.6,0,0,1-11.965-5.562,19.045,19.045,0,0,1-3.371-5.494,1.666,1.666,0,0,1,3.135-1.132A15.971,15.971,0,0,0,21.7,45.843,12.186,12.186,0,0,0,31.1,50.181a1.666,1.666,0,0,1-.006,3.333Z"/><path class="o" d="M70.363,74.859h.013c2.217-.016,5.371-1.2,7.806-6.735a1.666,1.666,0,0,0-3.051-1.342c-.948,2.155-2.547,4.728-4.78,4.745a1.666,1.666,0,0,0,.012,3.332Z"/><path class="p" d="M68.91,53.514h.007a15.6,15.6,0,0,0,11.965-5.562,19.045,19.045,0,0,0,3.371-5.494,1.666,1.666,0,0,0-3.135-1.132A15.971,15.971,0,0,1,78.3,45.843,12.186,12.186,0,0,1,68.9,50.181a1.666,1.666,0,0,0,.006,3.333Z"/><path class="q" d="M51.715,65.1H48.284a4.624,4.624,0,0,1-4.6-5.119L45.48,43.3h9.039l1.794,16.676A4.624,4.624,0,0,1,51.715,65.1Z"/><path class="r" d="M71.156,53.31a5.84,5.84,0,0,0-4.368-3.772,79.662,79.662,0,0,0-33.577,0,5.84,5.84,0,0,0-4.368,3.772,38.53,38.53,0,0,0,0,25.165,5.84,5.84,0,0,0,4.368,3.772,79.662,79.662,0,0,0,33.577,0,5.84,5.84,0,0,0,4.368-3.772A38.53,38.53,0,0,0,71.156,53.31Z"/><path class="s" d="M71.156,53.31a5.84,5.84,0,0,0-4.368-3.772,79.662,79.662,0,0,0-33.577,0,5.84,5.84,0,0,0-4.368,3.772,38.53,38.53,0,0,0,0,25.165,5.84,5.84,0,0,0,4.368,3.772,79.662,79.662,0,0,0,33.577,0,5.84,5.84,0,0,0,4.368-3.772A38.53,38.53,0,0,0,71.156,53.31Z"/><path class="t" d="M29.814,53.539a95.783,95.783,0,0,1,40.372,0,7.553,7.553,0,0,1,.989.283.359.359,0,0,0,.463-.451l0-.008a5.972,5.972,0,0,0-4.467-3.857,81.467,81.467,0,0,0-34.337,0,5.972,5.972,0,0,0-4.467,3.857l0,.008a.359.359,0,0,0,.463.451A7.545,7.545,0,0,1,29.814,53.539Z"/><path class="u" d="M27.835,74.987q.424,1.746,1.009,3.488a5.84,5.84,0,0,0,4.368,3.772,79.662,79.662,0,0,0,33.577,0,5.84,5.84,0,0,0,4.368-3.772q.587-1.742,1.009-3.488H27.835Z"/><path class="v" d="M66.788,82.247a5.84,5.84,0,0,0,4.368-3.772A38.429,38.429,0,0,0,72.6,58.78a110.847,110.847,0,0,0-45.19,0,38.431,38.431,0,0,0,1.439,19.7,5.84,5.84,0,0,0,4.368,3.772,79.665,79.665,0,0,0,33.577,0Z"/><path class="v" d="M66.788,82.247a5.84,5.84,0,0,0,4.368-3.772,39.375,39.375,0,0,0,2.1-11.758,110.892,110.892,0,0,0-46.518,0,39.381,39.381,0,0,0,2.1,11.758,5.84,5.84,0,0,0,4.368,3.772A79.664,79.664,0,0,0,66.788,82.247Z"/><path class="w" d="M66.788,82.247a5.84,5.84,0,0,0,4.368-3.772q.6-1.781,1.029-3.566a110.817,110.817,0,0,0-44.37,0q.429,1.785,1.029,3.566a5.84,5.84,0,0,0,4.368,3.772,79.664,79.664,0,0,0,33.576,0Z"/></g></g></svg>