<svg xmlns="http://www.w3.org/2000/svg" width="16.816" height="21.252" viewBox="0 0 16.816 21.252"><defs><style>.a{fill:#707070;}</style></defs><path class="a" d="M69.9,16.912a3.3,3.3,0,0,1-1-1.366A15.81,15.81,0,0,1,67.854,9.3c0-.008,0-.016,0-.024A6.03,6.03,0,0,0,64.3,3.806V2.367A2.368,2.368,0,0,0,61.94,0h-.2a2.368,2.368,0,0,0-2.364,2.367V3.806A6.03,6.03,0,0,0,55.831,9.3a15.81,15.81,0,0,1-1.046,6.247,3.3,3.3,0,0,1-1,1.366.605.605,0,0,0-.332.688.633.633,0,0,0,.624.487h4.564a3.206,3.206,0,0,0,6.411,0h4.564a.633.633,0,0,0,.624-.487A.605.605,0,0,0,69.9,16.912ZM60.626,2.367a1.12,1.12,0,0,1,1.118-1.12h.2a1.12,1.12,0,0,1,1.118,1.12V3.4a6.03,6.03,0,0,0-2.432,0V2.367ZM61.842,20a1.965,1.965,0,0,1-1.96-1.917H63.8A1.965,1.965,0,0,1,61.842,20Zm2.507-3.164H55.492a6.526,6.526,0,0,0,.326-.573A15.763,15.763,0,0,0,57.076,9.3a4.766,4.766,0,1,1,9.532,0c0,.008,0,.015,0,.023a15.731,15.731,0,0,0,1.258,6.944,6.531,6.531,0,0,0,.326.573Z" transform="translate(-53.434 0)"/></svg>