<svg xmlns="http://www.w3.org/2000/svg" width="17.189" height="17.743" viewBox="0 0 17.189 17.743"><defs><style>.a{fill:#f8e9d2;}.b{fill:#e4d5c1;}.c{fill:#cecccc;}.d{fill:#b59f89;}.e{fill:#e2e0e0;}.f{fill:#a18b76;}</style></defs><g transform="translate(-7.998)"><path class="a" d="M99.644,146.772v3.6a5.822,5.822,0,0,1-11.644,0v-3.6l4.99-2.376.832-.4Z" transform="translate(-77.229 -139.01)"/><path class="b" d="M238.654,146.772v3.6A5.824,5.824,0,0,1,232,156.139a5.823,5.823,0,0,0,4.99-5.763v-3.6L232,144.4l.832-.4Z" transform="translate(-216.239 -139.01)"/><path class="c" d="M238.654,328a5.822,5.822,0,0,1-5.822,5.822,5.876,5.876,0,0,1-.832-.059,5.827,5.827,0,0,0,4.935-4.958A11.735,11.735,0,0,0,238.654,328Z" transform="translate(-216.239 -316.633)"/><path class="d" d="M54.971,21.239v1.969H51.488a11.131,11.131,0,0,1-6.2-1.886,4.429,4.429,0,0,1-3.63,1.886H40V20.436a3.327,3.327,0,0,1,3.327-3.327q.136-.106.277-.2A5.239,5.239,0,0,1,46.55,16h3.182A5.239,5.239,0,0,1,54.971,21.239Z" transform="translate(-30.893 -15.446)"/><path class="e" d="M97.862,328.829A11.766,11.766,0,0,0,99.644,328,5.822,5.822,0,0,1,88,328a11.766,11.766,0,0,0,1.782.829,4.085,4.085,0,0,0,2.974-.061,2.779,2.779,0,0,1,2.133,0A4.083,4.083,0,0,0,97.862,328.829Z" transform="translate(-77.229 -316.633)"/><path class="b" d="M424,224h.693a1.525,1.525,0,1,1,0,3.05H424Z" transform="translate(-401.585 -216.237)"/><path class="b" d="M26.218,227.05h-.693a1.525,1.525,0,1,1,0-3.05h.693Z" transform="translate(-15.447 -216.237)"/><path class="f" d="M279.732,21.239v1.969h-1.663V21.239A5.239,5.239,0,0,0,272.83,16h1.663A5.239,5.239,0,0,1,279.732,21.239Z" transform="translate(-255.654 -15.446)"/><path d="M24.623,7.865c.014-.075.01.079.01-2.072A5.8,5.8,0,0,0,18.839,0H15.657a5.774,5.774,0,0,0-3.415,1.114A3.88,3.88,0,0,0,8.553,4.99c0,3.016,0,2.8.01,2.875a2.081,2.081,0,0,0,1.515,3.5h.139a6.376,6.376,0,1,0,12.753,0h.139A2.081,2.081,0,0,0,24.623,7.865ZM9.662,4.99a2.771,2.771,0,0,1,2.772-2.772c.245,0,.333-.124.589-.3a4.666,4.666,0,0,1,2.634-.811h3.182a4.69,4.69,0,0,1,4.684,4.684V7.208H20.6A10.545,10.545,0,0,1,13.1,4.092a.554.554,0,1,0-.787.781A11.668,11.668,0,0,0,13.6,5.986a3.888,3.888,0,0,1-2.827,1.222H9.662Zm12.2,6.049a11.211,11.211,0,0,1-1.418.636,3.52,3.52,0,0,1-2.57-.053,3.33,3.33,0,0,0-2.559,0,3.52,3.52,0,0,1-2.57.053,11.21,11.21,0,0,1-1.418-.636V8.286a5,5,0,0,0,3.2-1.672,11.63,11.63,0,0,0,6.071,1.7H21.86Zm-11.782-.781a.97.97,0,0,1,0-1.941h.139v1.941Zm6.386,6.375a5.277,5.277,0,0,1-5.052-4.311q.467.217.949.394a4.626,4.626,0,0,0,3.378-.07,2.222,2.222,0,0,1,1.707,0,4.626,4.626,0,0,0,3.378.07q.481-.176.949-.394a5.275,5.275,0,0,1-5.309,4.311Zm6.644-6.375h-.139V8.317h.139a.97.97,0,1,1,0,1.941Z"/><path d="M160.554,256a.554.554,0,0,0-.554.554v.554a.554.554,0,1,0,1.109,0v-.554A.554.554,0,0,0,160.554,256Z" transform="translate(-146.734 -247.129)"/><path d="M320.554,256a.554.554,0,0,0-.554.554v.554a.554.554,0,1,0,1.109,0v-.554A.555.555,0,0,0,320.554,256Z" transform="translate(-301.189 -247.129)"/></g></svg>