<svg xmlns="http://www.w3.org/2000/svg" width="16.476" height="16.501" viewBox="0 0 16.476 16.501"><defs><style>.a{fill:#d1cfc3;}.b{fill:#b7b2a5;}.c{fill:#ffdc13;}.d{fill:#e5af17;}.e{fill:#26bfb0;}.f{fill:#1c998a;}.g{fill:#ff5086;}.h{fill:#e03f81;}.i{fill:#3098c6;}.j{fill:#2686a8;}</style></defs><g transform="translate(-16.717 -16)"><path class="a" d="M224.275,227.575,224,233.351h9.076v-.55l-2.2-3.85-2.75,1.65L226.2,224Z" transform="translate(-200.157 -200.85)"/><path class="b" d="M230.875,350.115l-2.75,1.65-.667-2.287a16.84,16.84,0,0,1-3.339,2.528l-.12,2.509h9.076v-.55Z" transform="translate(-200.157 -322.014)"/><path class="c" d="M31.15,289.375l-1.1,1.65L28.95,288l-2.2,6.05-1.375-3.85L24,293.225v1.925h7.15Z" transform="translate(-7.033 -262.649)"/><path class="d" d="M24,422.644v.331h7.15v-2.6A16.674,16.674,0,0,1,24,422.644Z" transform="translate(-7.033 -390.474)"/><circle class="e" cx="3.575" cy="3.575" r="3.575" transform="translate(25.768 16.55)"/><path class="f" d="M290.545,56.612a3.575,3.575,0,0,1-5.719,3.808,3.576,3.576,0,1,0,5.719-3.808Z" transform="translate(-258.892 -39.216)"/><path class="g" d="M331.8,65.379a.825.825,0,0,0-.825-.825h-.047a1.417,1.417,0,0,0-2.64.866.55.55,0,0,0,.395,1.026.825.825,0,0,0,.959.244.549.549,0,0,0,.783.264v1.724h.55l.387-1.937a.549.549,0,0,0,.3-.9A.821.821,0,0,0,331.8,65.379Z" transform="translate(-300.531 -46.354)"/><path class="h" d="M381.793,84.123a.825.825,0,0,0-.4-.708,3.583,3.583,0,0,1-1.671,2.16.548.548,0,0,0,.7.124v1.724h.55l.387-1.937a.549.549,0,0,0,.3-.9A.821.821,0,0,0,381.793,84.123Z" transform="translate(-350.525 -65.097)"/><circle class="i" cx="0.825" cy="0.825" r="0.825" transform="translate(23.293 25.901)"/><path class="j" d="M212.64,307.506a.825.825,0,0,1-1.134,1.134.825.825,0,1,0,1.134-1.134Z" transform="translate(-188.093 -281.485)"/><path d="M275.85,24a3.85,3.85,0,1,0,3.85,3.85A3.85,3.85,0,0,0,275.85,24Zm0,7.15a3.3,3.3,0,1,1,3.3-3.3A3.3,3.3,0,0,1,275.85,31.15Z" transform="translate(-246.507 -7.725)"/><path d="M323.43,56.557a1.745,1.745,0,0,0-3.14,1.012.825.825,0,0,0,.533,1.455.814.814,0,0,0,.092-.005,1.1,1.1,0,0,0,.928.263.823.823,0,0,0,.63.292V60.95a.275.275,0,0,0,.275.275h.55a.275.275,0,0,0,.27-.221l.357-1.783a.824.824,0,0,0,.38-1.127,1.1,1.1,0,0,0-.874-1.537Zm.348,1.735a.271.271,0,0,1,.07.182.276.276,0,0,1-.219.269.275.275,0,0,0-.214.215l-.343,1.716h-.05V59.225a.275.275,0,0,0-.413-.238.27.27,0,0,1-.137.037.275.275,0,0,1-.254-.169.275.275,0,0,0-.36-.148.547.547,0,0,1-.477-.027.275.275,0,0,1,.266-.206v-.55a.826.826,0,0,0-.776.545.265.265,0,0,1-.049,0,.275.275,0,0,1-.106-.529.275.275,0,0,0,.148-.36.55.55,0,0,1,.508-.761.826.826,0,0,0,.825.825V57.1a.275.275,0,0,1-.268-.215.274.274,0,0,0,.08-.081.55.55,0,0,1,.983.113.275.275,0,0,0,.275.183h.031a.55.55,0,0,1,.457.856A.275.275,0,0,0,323.778,58.292Z" transform="translate(-292.855 -38.624)"/><path d="M392.55,112H392a.826.826,0,0,0,.825.825v-.55A.275.275,0,0,1,392.55,112Z" transform="translate(-362.382 -92.7)"/><path d="M224,272h.55v.55H224Z" transform="translate(-200.157 -247.199)"/><path d="M224,80h.55v.55H224Z" transform="translate(-200.157 -61.8)"/><path d="M224,144h.55v.55H224Z" transform="translate(-200.157 -123.6)"/><path d="M224,112h.55v.55H224Z" transform="translate(-200.157 -92.7)"/><path d="M224,176h.55v.55H224Z" transform="translate(-200.157 -154.5)"/><path d="M224,48h.55v.55H224Z" transform="translate(-200.157 -30.9)"/><path d="M224,16h.55v.55H224Z" transform="translate(-200.157)"/><path d="M224,208h.55v.55H224Z" transform="translate(-200.157 -185.4)"/><path d="M224,464h.55v.55H224Z" transform="translate(-200.157 -432.599)"/><path d="M224,432h.55v.55H224Z" transform="translate(-200.157 -401.699)"/><path d="M224,400h.55v.55H224Z" transform="translate(-200.157 -370.799)"/><path d="M224,240h.55v.55H224Z" transform="translate(-200.157 -216.3)"/><path d="M224,368h.55v.55H224Z" transform="translate(-200.157 -339.899)"/><path d="M22.176,280.179a.275.275,0,0,0-.517,0l-1.939,5.333L18.6,282.381a.275.275,0,0,0-.509-.021l-1.375,3.025.5.228,1.094-2.407,1.147,3.211a.275.275,0,0,0,.258.183h0a.275.275,0,0,0,.258-.181l1.942-5.34.842,2.314a.275.275,0,0,0,.487.058l.509-.764a1.1,1.1,0,1,0-.457-.305l-.208.312Zm1.942.919a.55.55,0,1,1-.55.55A.55.55,0,0,1,24.118,281.1Z" transform="translate(0 -254.923)"/><path d="M0,0H.55V.55H0Z" transform="translate(28.812 28.916) rotate(-30.954)"/><path d="M0,0H.55V.55H0Z" transform="translate(31.643 30.283) rotate(-29.745)"/><path d="M0,0H.55V.55H0Z" transform="translate(27.106 27.778) rotate(-16.26)"/><path d="M0,0H.55V.55H0Z" transform="translate(31.098 29.328) rotate(-29.745)"/><path d="M0,0H.55V.55H0Z" transform="translate(32.189 31.238) rotate(-29.745)"/><path d="M0,0H.55V.55H0Z" transform="translate(26.182 24.61) rotate(-16.26)"/><path d="M0,0H.55V.55H0Z" transform="translate(24.392 25.63) rotate(-61.691)"/><path d="M271.211,225.854l-.48-.259-.261.484.484.261.042-.079.061.21.528-.154-.154-.528Z" transform="translate(-245.03 -202.39)"/><path d="M0,0H.55V.55H0Z" transform="translate(26.798 26.722) rotate(-16.26)"/><path d="M0,0H.55V.55H0Z" transform="translate(24.914 24.661) rotate(-61.691)"/><path d="M0,0H.55V.55H0Z" transform="translate(26.49 25.666) rotate(-16.26)"/><path d="M0,0H.55V.55H0Z" transform="translate(30.552 28.373) rotate(-29.745)"/><path d="M0,0H.55V.55H0Z" transform="matrix(0.857, -0.515, 0.515, 0.857, 29.768, 28.338)"/><path d="M0,0H.55V.55H0Z" transform="translate(27.414 28.834) rotate(-16.26)"/><path d="M0,0H.55V.55H0Z" transform="matrix(0.857, -0.515, 0.515, 0.857, 27.883, 29.47)"/></g></svg>