<svg xmlns="http://www.w3.org/2000/svg" width="17.571" height="17.738" viewBox="0 0 17.571 17.738"><defs><style>.a{fill:#ececec;}.b{fill:#dadada;}.c{fill:#986b54;}.d{fill:#845c47;}.e{fill:#ffd064;}.f{fill:#ffc250;}.g{fill:#80b4fb;}.h{fill:#95d6a4;}.i{fill:#db5b6f;}</style></defs><g transform="translate(-2.401)"><g transform="translate(2.661 0.26)"><g transform="translate(0)"><path class="a" d="M39.224,49.253a89.511,89.511,0,0,1-15.267,0,42.033,42.033,0,0,1-.2-10.2q.085-.83.2-1.661a89.513,89.513,0,0,1,15.267,0q.117.83.2,1.66a42.038,42.038,0,0,1-.2,10.2Z" transform="translate(-23.065 -36.046)"/><path class="b" d="M45.489,39.056a1.018,1.018,0,0,1-.32.057q-7.516.106-15.032,0a1.026,1.026,0,0,1-.319-.056q.085-.83.2-1.661a89.513,89.513,0,0,1,15.267,0Q45.4,38.226,45.489,39.056Z" transform="translate(-29.127 -36.046)"/><path class="c" d="M25.942,9.8q-7.516.106-15.032,0a1,1,0,0,1-.942-.691,1.434,1.434,0,0,1-.012-.83,1.006,1.006,0,0,1,.955-.729q7.516-.106,15.032,0a1,1,0,0,1,.942.691,1.434,1.434,0,0,1,.012.83A1.006,1.006,0,0,1,25.942,9.8Z" transform="translate(-9.901 -7.493)"/><path class="d" d="M26.846,10.423a1.007,1.007,0,0,1-.9.589q-7.516.106-15.032,0a1,1,0,0,1-.942-.691,1.433,1.433,0,0,1-.011-.829,1.006,1.006,0,0,1,.954-.73l.7-.009a1.01,1.01,0,0,0-.051.14,1.432,1.432,0,0,0,.012.83,1,1,0,0,0,.942.69q7.165.1,14.329.009Z" transform="translate(-9.901 -8.709)"/><path class="e" d="M217.354,427.207a1.387,1.387,0,1,1,1.387-1.387A1.388,1.388,0,0,1,217.354,427.207Zm0-1.908a.521.521,0,1,0,.521.521A.521.521,0,0,0,217.354,425.3Z" transform="translate(-208.828 -409.988)"/><g transform="translate(7.139 14.445)"><path class="f" d="M262.462,450.423a.521.521,0,1,0,0-.939.52.52,0,0,1,0,.939Z" transform="translate(-260.851 -448.567)"/><path class="f" d="M216.414,425.819a1.389,1.389,0,0,1,1.163-1.368,1.387,1.387,0,1,0,0,2.737A1.389,1.389,0,0,1,216.414,425.819Z" transform="translate(-215.966 -424.432)"/></g></g><g transform="translate(1.465 3.401)"><path class="e" d="M104.465,220.758c.343.138,1.31,1.174,1.212,1.513a3.827,3.827,0,0,1-6.73,1.238,14.86,14.86,0,0,0,0-1.771L102,221.2S102.581,220,104.465,220.758Z" transform="translate(-97.326 -216.529)"/><path class="g" d="M190.943,133.97a3.827,3.827,0,0,1-.151,1.066l-3.675-1.066v-3.826A3.826,3.826,0,0,1,190.943,133.97Z" transform="translate(-182.442 -129.295)"/><path class="h" d="M80.513,240.583l-3.055,2.3a3.81,3.81,0,0,1-.772-2.3Z" transform="translate(-75.838 -235.908)"/><path class="i" d="M56.012,105.653v3.826H52.186A3.826,3.826,0,0,1,56.012,105.653Z" transform="translate(-52.186 -105.653)"/></g><g transform="translate(11.194 4.477)"><g transform="translate(0)"><path class="i" d="M335.377,137.768h-2.122a.236.236,0,0,1-.236-.236v-.583a.236.236,0,0,1,.236-.236h2.122a.236.236,0,0,1,.236.236v.583A.236.236,0,0,1,335.377,137.768Z" transform="translate(-333.019 -136.713)"/><path class="h" d="M333.582,246.1h-.327a.236.236,0,0,1-.236-.236v-.583a.236.236,0,0,1,.236-.236h.327a.236.236,0,0,1,.236.236v.583A.236.236,0,0,1,333.582,246.1Z" transform="translate(-333.019 -241.289)"/><path class="g" d="M336.277,191.933h-3.022a.236.236,0,0,1-.236-.236v-.583a.236.236,0,0,1,.236-.236h3.022a.236.236,0,0,1,.236.236v.583A.236.236,0,0,1,336.277,191.933Z" transform="translate(-333.02 -189.001)"/><path class="e" d="M336.731,300.261h-3.477a.236.236,0,0,1-.236-.236v-.583a.236.236,0,0,1,.236-.236h3.477a.236.236,0,0,1,.236.236v.583A.236.236,0,0,1,336.731,300.261Z" transform="translate(-333.019 -293.577)"/></g></g></g><g transform="translate(2.401 0)"><path d="M19.894.926A1.252,1.252,0,0,0,18.707.053c-4.99-.07-10.05-.07-15.04,0a1.272,1.272,0,0,0-1.2.919,1.7,1.7,0,0,0,.013.977,1.236,1.236,0,0,0,.671.758A42.487,42.487,0,0,0,3.3,13.5a.26.26,0,0,0,.235.222c2.454.21,4.925.318,7.4.325v.414a1.647,1.647,0,1,0,.52,0v-.414c2.471-.007,4.942-.115,7.4-.325a.26.26,0,0,0,.235-.222,42.5,42.5,0,0,0,.144-10.8,1.267,1.267,0,0,0,.685-.8,1.7,1.7,0,0,0-.013-.977Zm-7.58,15.165a1.127,1.127,0,1,1-1.127-1.127A1.128,1.128,0,0,1,12.314,16.091ZM19.407,1.762a.749.749,0,0,1-.708.54l-.709.009a.26.26,0,0,0,0,.52h0l.71-.009h.007a41.975,41.975,0,0,1-.121,10.4,89.689,89.689,0,0,1-14.81,0,41.972,41.972,0,0,1-.121-10.4h.006c2.5.035,5.016.053,7.532.053,1.925,0,3.849-.01,5.761-.031a.26.26,0,1,0-.006-.52c-4.406.048-8.874.04-13.28-.022a.733.733,0,0,1-.7-.508,1.168,1.168,0,0,1-.01-.682.749.749,0,0,1,.708-.54C8.66.5,13.715.5,18.7.572a.733.733,0,0,1,.7.508A1.169,1.169,0,0,1,19.407,1.762Z" transform="translate(-2.401 0)"/><path d="M233.466,442.714a.781.781,0,1,0,.781-.781A.781.781,0,0,0,233.466,442.714Zm1.041,0a.261.261,0,1,1-.261-.261A.261.261,0,0,1,234.507,442.714Z" transform="translate(-225.461 -426.622)"/><path d="M73.263,122.643a.26.26,0,0,0-.26.26v3.567H69.437a.26.26,0,0,0-.26.26,4.1,4.1,0,0,0,1.72,3.332.26.26,0,0,0,.151.048h0a.26.26,0,0,0,.146-.475,3.564,3.564,0,0,1-.613-.556l2.735-2.063,3.291.955a3.57,3.57,0,0,1-4.552,2.116.26.26,0,1,0-.176.489,4.087,4.087,0,1,0,1.384-7.932Zm-3.557,4.346h2.781l-2.219,1.674A3.573,3.573,0,0,1,69.706,126.989Zm7.045.482-3.229-.937v-3.362a3.568,3.568,0,0,1,3.229,4.3Z" transform="translate(-66.864 -118.394)"/><path d="M49.032,102.239V98.413a.26.26,0,0,0-.26-.26,4.091,4.091,0,0,0-4.086,4.086.26.26,0,0,0,.26.26h3.826A.26.26,0,0,0,49.032,102.239Zm-.52-.26h-3.3a3.572,3.572,0,0,1,3.3-3.3Z" transform="translate(-43.221 -94.753)"/><path d="M326.016,130.788h2.122a.5.5,0,0,0,.5-.5v-.583a.5.5,0,0,0-.5-.5h-2.122a.5.5,0,0,0-.5.5v.583A.5.5,0,0,0,326.016,130.788Zm.024-1.055h2.074v.535H326.04Z" transform="translate(-314.326 -124.736)"/><path d="M326.016,239.117h.327a.5.5,0,0,0,.5-.5v-.583a.5.5,0,0,0-.5-.5h-.327a.5.5,0,0,0-.5.5v.583A.5.5,0,0,0,326.016,239.117Zm.024-1.055h.279v.535h-.279Z" transform="translate(-314.326 -229.313)"/><path d="M326.016,184.953h3.022a.5.5,0,0,0,.5-.5v-.583a.5.5,0,0,0-.5-.5h-3.022a.5.5,0,0,0-.5.5v.583A.5.5,0,0,0,326.016,184.953Zm.024-1.055h2.973v.535H326.04Z" transform="translate(-314.326 -177.025)"/><path d="M326.016,291.707a.5.5,0,0,0-.5.5v.583a.5.5,0,0,0,.5.5h3.476a.5.5,0,0,0,.5-.5V292.2a.5.5,0,0,0-.5-.5Zm3.452,1.055H326.04v-.535h3.428Z" transform="translate(-314.326 -281.601)"/></g></g></svg>