<svg xmlns="http://www.w3.org/2000/svg" width="22.217" height="26.66" viewBox="0 0 22.217 26.66"><defs><style>.a{fill:#209cd9;}</style></defs><g transform="translate(-5)"><path class="a" d="M26.772,25.771H25.439V23.994H23.218V19.452a3.575,3.575,0,0,0-1.595-2.98L16.91,13.33l4.714-3.142a3.575,3.575,0,0,0,1.595-2.98V2.666h2.222V.889h1.333a.444.444,0,0,0,0-.889H5.444a.444.444,0,0,0,0,.889H6.777V2.666H9V7.208a3.575,3.575,0,0,0,1.595,2.98l4.714,3.142-4.714,3.142A3.575,3.575,0,0,0,9,19.452v4.542H6.777v1.777H5.444a.444.444,0,0,0,0,.889H26.772a.444.444,0,0,0,0-.889ZM7.666,1.777V.889H24.551v.889H7.666Zm3.42,7.671a2.688,2.688,0,0,1-1.2-2.24V2.666H22.329V7.208a2.688,2.688,0,0,1-1.2,2.24L16.108,12.8Zm-1.2,10a2.688,2.688,0,0,1,1.2-2.24l5.022-3.348,5.022,3.348a2.688,2.688,0,0,1,1.2,2.24v4.542H9.888ZM7.666,24.883H24.551v.889H7.666Z"/><path class="a" d="M19.3,15.193a.914.914,0,0,1-.407-.762v-.987a.444.444,0,0,0-.889,0v.987a1.8,1.8,0,0,0,.8,1.5l2.061,1.374a.444.444,0,1,0,.493-.739Z" transform="translate(-7.224 -7.224)"/><path class="a" d="M36.751,39.448,34.69,38.074a.444.444,0,1,0-.493.739l2.061,1.374a.913.913,0,0,1,.408.762v.987a.444.444,0,0,0,.889,0v-.987A1.8,1.8,0,0,0,36.751,39.448Z" transform="translate(-16.114 -21.115)"/></g></svg>